<svg xmlns="http://www.w3.org/2000/svg" data-name="Layer 1" viewBox="0 0 100 125" x="0px" y="0px"><title>stngs</title><g><path d="M95.5,60l-5.35-2.92a8.29,8.29,0,0,1,0-14.58l5.35-2.92c4.46-2.5,5.8-7.5,3.12-11.25l-4.46-7.08a8.81,8.81,0,0,0-12-2.92l-5.35,2.92c-5.8,3.33-13.38-.83-13.38-7.08V8.33c0-4.58-4-8.33-8.92-8.33H45.54c-4.91,0-8.92,3.75-8.92,8.33v5.42c0,6.25-7.58,10.42-13.38,7.08l-5.35-2.5a9,9,0,0,0-12,2.92L1.37,28.33A8.73,8.73,0,0,0,4.5,40l5.35,2.92a7.94,7.94,0,0,1,0,14.17L4.5,60C0,62.5-1.3,67.5,1.37,71.25l4.46,7.08a8.81,8.81,0,0,0,12,2.92l5.35-2.5c5.8-3.33,13.38.83,13.38,7.08v5.83c0,4.58,4,8.33,8.92,8.33h8.92c4.91,0,8.92-3.75,8.92-8.33V86.25c0-6.25,7.58-10.42,13.38-7.08l5.35,2.92a9,9,0,0,0,12-2.92l4.46-7.08C100.86,67.5,99.52,62.5,95.5,60ZM50,66.67c-9.81,0-17.84-7.5-17.84-16.67s8-16.67,17.84-16.67S67.84,40.83,67.84,50,59.81,66.67,50,66.67Z"/></g><text x="0" y="115" fill="#000000" font-size="5px" font-weight="bold" font-family="'Helvetica Neue', Helvetica, Arial-Unicode, Arial, Sans-serif">Created by i cons</text><text x="0" y="120" fill="#000000" font-size="5px" font-weight="bold" font-family="'Helvetica Neue', Helvetica, Arial-Unicode, Arial, Sans-serif">from the Noun Project</text></svg>