<svg xmlns="http://www.w3.org/2000/svg" xmlns:xlink="http://www.w3.org/1999/xlink" version="1.1" x="0px" y="0px" viewBox="0 0 200 250" enable-background="new 0 0 200 200" xml:space="preserve"><g><g><polygon fill="#000000" points="132.267,200 112.203,157.933 118.048,155.145 131.384,183.109 138.586,162.785 158.904,169.981     145.866,142.641 151.711,139.854 171.477,181.303 142.525,171.049   "/><polygon fill="#000000" points="67.734,200 57.476,171.049 28.526,181.303 48.292,139.854 54.137,142.641 41.098,169.981     61.417,162.785 68.62,183.109 81.956,155.145 87.8,157.933   "/></g><path fill="#000000" d="M100.001,125.172c-25.981,0-47.117-21.137-47.117-47.118c0-25.98,21.136-47.117,47.117-47.117   c25.979,0,47.116,21.136,47.116,47.117C147.117,104.035,125.98,125.172,100.001,125.172z M100.001,37.411   c-22.409,0-40.643,18.232-40.643,40.643c0,22.411,18.234,40.644,40.643,40.644c22.411,0,40.642-18.233,40.642-40.644   C140.643,55.644,122.412,37.411,100.001,37.411z"/><path fill="#000000" d="M81.68,105.55l3.496-20.401l-14.82-14.447l20.484-2.977l9.161-18.566l9.162,18.566l20.487,2.977   L114.828,85.15l3.495,20.399l-18.322-9.629L81.68,105.55z M100.001,88.606l9.728,5.111l-1.855-10.83l7.865-7.666l-10.874-1.581   l-4.862-9.853l-4.863,9.853l-10.872,1.581l7.864,7.667l-1.856,10.828L100.001,88.606z"/><path fill="#000000" d="M100.009,156.21l-13.797-14.081l-18.321,7.256l-6.875-18.473l-19.694-0.82l1.235-19.676l-17.653-8.775   l9.132-17.459L21.465,68.992l15.453-12.249l-5.307-18.978l19.098-4.906l2.875-19.508l19.445,3.297L83.588,0l16.42,10.913L116.413,0   l10.568,16.649l19.441-3.297l2.877,19.508l19.094,4.906l-5.302,18.978l15.443,12.249l-12.561,15.189l9.135,17.459l-17.657,8.775   l1.236,19.676l-19.703,0.82l-6.868,18.473l-18.32-7.256L100.009,156.21z M87.825,134.525l12.183,12.432l12.173-12.432l16.172,6.404   l6.063-16.307l17.396-0.725l-1.091-17.365l15.587-7.748l-8.064-15.417l11.091-13.41l-13.637-10.815l4.682-16.753l-16.856-4.333   l-2.541-17.218l-17.16,2.913l-9.331-14.699l-14.482,9.634L85.513,9.053l-9.323,14.699l-17.166-2.913l-2.537,17.218L39.627,42.39   l4.684,16.753L30.668,69.958l11.1,13.41l-8.064,15.417l15.583,7.748l-1.089,17.365l17.387,0.725l6.069,16.31L87.825,134.525z"/></g><text x="0" y="215" fill="#000000" font-size="5px" font-weight="bold" font-family="'Helvetica Neue', Helvetica, Arial-Unicode, Arial, Sans-serif">Created by Maxim Basinski</text><text x="0" y="220" fill="#000000" font-size="5px" font-weight="bold" font-family="'Helvetica Neue', Helvetica, Arial-Unicode, Arial, Sans-serif">from the Noun Project</text></svg>